<?xml version="1.0" encoding="UTF-8" standalone="no"?>
<svg
   xml:space="preserve"
   width="8.3044758in"
   height="7.2454162in"
   shape-rendering="geometricPrecision"
   text-rendering="geometricPrecision"
   image-rendering="optimizeQuality"
   fill-rule="evenodd"
   clip-rule="evenodd"
   viewBox="0 0 14.163427 12.3572"
   version="1.1"
   id="svg90"
   sodipodi:docname="Electric_guitar-tims.svg"
   inkscape:version="1.2.2 (b0a8486541, 2022-12-01)"
   xmlns:inkscape="http://www.inkscape.org/namespaces/inkscape"
   xmlns:sodipodi="http://sodipodi.sourceforge.net/DTD/sodipodi-0.dtd"
   xmlns="http://www.w3.org/2000/svg"
   xmlns:svg="http://www.w3.org/2000/svg"><defs
   id="defs94" /><sodipodi:namedview
   id="namedview92"
   pagecolor="#ffffff"
   bordercolor="#000000"
   borderopacity="0.25"
   inkscape:showpageshadow="2"
   inkscape:pageopacity="0.0"
   inkscape:pagecheckerboard="0"
   inkscape:deskcolor="#d1d1d1"
   inkscape:document-units="in"
   showgrid="false"
   inkscape:zoom="1.1433326"
   inkscape:cx="450.87491"
   inkscape:cy="205.9768"
   inkscape:window-width="1920"
   inkscape:window-height="1018"
   inkscape:window-x="0"
   inkscape:window-y="30"
   inkscape:window-maximized="1"
   inkscape:current-layer="Layer_x0020_1"><inkscape:page
     x="0"
     y="0"
     width="14.163427"
     height="12.357201"
     id="page555" /><inkscape:page
     x="13.90706"
     y="-3.4961932"
     width="0.015538216"
     height="0.85462499"
     id="page557" /></sodipodi:namedview>
 <g
   id="Layer_x0020_1"
   inkscape:label="Layer 1"
   inkscape:groupmode="layer"
   transform="translate(0.48169774,0.31077249)">
  <metadata
   id="CorelCorpID_0Corel-Layer" />
  <path
   fill="#1860a2"
   d="m 0.50259227,4.8910341 c -0.193543,-0.575813 -0.323974,-1.17208 -0.441856,-1.76801 -0.112443,-0.568488 0.0987722,-1.01313 0.550452,-1.28887 0.40627503,-0.248012 0.88616303,-0.415495 1.55127003,-0.242264 0.764924,0.199237 1.37277,0.094139 1.87636,-0.347751 0.62479,-0.54824302 1.22054,-0.72293102 1.67676,-0.46752602 0.262153,0.146755 0.200365,0.42054402 -0.074183,0.52753502 -0.21928,0.085444 -0.449592,0.125268 -0.530416,0.302226 -0.164871,0.360985 0.140094,0.579218 0.416274,0.74429 0.012342,0.194859 0.024683,0.389717 0.037025,0.584576 -0.210148,0.064501 -0.454272,0.105957 -0.570334,0.287964 -0.159728,0.250483 -0.024931,0.446395 0.230936,0.584589 0.171411,0.092575 0.344219,0.049426 0.530382,0.085585 0.168907,0.032808 0.284982,0.198014 0.162501,0.383546 -0.184229,0.27908 -0.55346,0.408041 -1.26041,0.315003 -0.500791,-0.065904 -0.843123,0.093548 -1.07221,0.36492 -0.502637,0.530597 -1.06166,0.899727 -1.71102,0.96085 -0.615282,0.057914 -1.12324003,-0.288017 -1.37153003,-1.02667 z"
   id="path11" />
  <path
   fill="#e3d9ba"
   d="m 2.3119973,3.5625941 c -0.127383,-0.279611 -0.351538,-0.598992 -0.0042,-1.0103 0.252228,-0.298687 0.632538,-0.25296 0.941922,-0.205125 0.549633,0.08498 1.02195,0.00144 1.47202,-0.289159 0.116767,-0.075399 0.26596,-0.035722 0.260763,0.098343 -0.015605,0.402401 -0.159627,0.791333 -0.192461,1.19269 -0.039106,0.4779 0.281571,0.698886 0.870861,0.708105 0.156263,0.00245 0.103499,0.201452 -0.015618,0.261038 -0.279127,0.139644 -0.622419,0.131835 -0.972171,0.065374 -0.472817,-0.089848 -0.830882,0.05933 -1.13146,0.391785 -0.262307,0.290126 -0.573953,0.549888 -0.97616,0.698161 -0.214982,0.079253 -0.411043,-0.018794 -0.341976,-0.181 0.156981,-0.368674 0.342654,-0.686188 0.243755,-1.08439 -0.053348,-0.214788 -0.063527,-0.444126 -0.155276,-0.645518 z"
   id="path13" />
  <path
   fill="#c9b593"
   d="m 10.653877,0.82442108 c 0.193522,-0.0491108 0.366901,-0.09706 0.431791,-0.331985 l 1.9289,-0.0288259 c 0.636493,-0.009501 0.464901,0.423572 0.05603,0.75001102 -0.214425,-0.62383602 -0.889608,0.286043 -1.25115,0.397473 -0.207563,-0.273138 -0.540689,-0.401837 -0.970385,-0.272245 l -6.0533298,1.82576 c -0.053704,-0.00408 -0.232743,-0.727785 -0.178146,-0.734702 2.0121,-0.535163 4.0182,-1.0934 6.0362998,-1.60548002 z"
   id="path15" />
  <path
   fill="#969594"
   d="m 11.353377,0.31588158 c 0.05784,-0.006493 0.108388,0.0207079 0.11288,0.0607473 0.0045,0.0400393 -0.03875,0.0777823 -0.09659,0.0842753 -0.05784,0.0065 -0.108381,-0.0207079 -0.11288,-0.0607473 -0.0045,-0.0400393 0.03875,-0.0777756 0.09659,-0.0842753 z m 1.65744,-0.019694 c 0.05784,-0.0065 0.108394,0.0207012 0.112886,0.0607406 0.0045,0.0400393 -0.03876,0.0777756 -0.09659,0.0842753 -0.05783,0.006493 -0.108388,-0.0207079 -0.112886,-0.0607473 -0.0045,-0.0400326 0.03876,-0.0777756 0.09659,-0.0842686 z m -1.32594,0.0175386 c 0.05784,-0.006486 0.108381,0.0207146 0.11288,0.060754 0.0045,0.0400326 -0.03875,0.0777756 -0.09659,0.0842686 -0.05784,0.0065 -0.108381,-0.0207012 -0.11288,-0.0607473 -0.0045,-0.0400393 0.03875,-0.0777756 0.09659,-0.0842753 z m 0.994497,-0.006453 c 0.05784,-0.006493 0.108381,0.0207079 0.11288,0.0607473 0.0045,0.0400393 -0.03875,0.0777823 -0.09659,0.0842753 -0.05784,0.0065 -0.108381,-0.0207012 -0.11288,-0.0607473 -0.0045,-0.0400393 0.03875,-0.0777756 0.09659,-0.0842753 z m -0.662996,0.004304 c 0.05784,-0.006493 0.108381,0.0207079 0.11288,0.0607473 0.0045,0.0400393 -0.03875,0.0777823 -0.09659,0.0842753 -0.05784,0.0065 -0.108381,-0.0207079 -0.11288,-0.0607473 -0.0045,-0.0400393 0.03875,-0.0777756 0.09659,-0.0842753 z m 0.331495,-0.002149 c 0.05784,-0.006493 0.108381,0.0207079 0.11288,0.0607473 0.0045,0.0400326 -0.03875,0.0777756 -0.09659,0.0842686 -0.05784,0.0065 -0.108381,-0.0207012 -0.11288,-0.0607473 -0.0045,-0.0400393 0.03875,-0.0777756 0.09659,-0.0842686 z"
   id="path17" />
  <path
   fill="#969594"
   fill-rule="nonzero"
   d="m 10.774977,0.79103608 0.158579,0.52535902 c -0.01142,0.00263 -0.02292,0.00545 -0.03447,0.00845 L 10.741041,0.80125509 c 0.01145,-0.003297 0.02276,-0.006681 0.03394,-0.010219 z m -0.490007,0.127511 0.163347,0.54117202 -0.03393,0.010233 -0.16377,-0.54258202 z m -0.4622147,0.11935302 0.168893,0.559557 -0.033929,0.010233 -0.169296,-0.560873 z m -0.395888,0.103311 0.173345,0.574302 -0.033922,0.01024 -0.173721,-0.575545 z m -0.413756,0.108925 0.177736,0.588853 -0.033936,0.010233 -0.178085,-0.590021 z m -0.700094,0.186103 0.184666,0.611817 -0.033929,0.010226 -0.184988,-0.612891 z m -0.347388,0.093011 0.187922,0.622594 -0.033929,0.01024 -0.188238,-0.623648 z m -0.302857,0.081368 0.190682,0.631746 -0.033922,0.010226 -0.190998,-0.63276 z m -0.303387,0.08169 0.193395,0.640737 -0.033922,0.01024 -0.1937043,-0.641751 z m -0.276441,0.074553 0.195839,0.648828 -0.033929,0.010233 -0.196141,-0.649822 z m -0.266551,0.071961 0.198169,0.656557 -0.033922,0.010233 -0.198478,-0.65755 z m -0.241868,0.0653 0.200291,0.663573 -0.033929,0.010226 -0.200586,-0.664554 z m -0.245151,0.066206 0.202433,0.670664 -0.033929,0.010226 -0.202735,-0.671651 z m -0.208966,0.056403 0.204259,0.676734 -0.033929,0.010226 -0.204568,-0.677728 z m -0.217205,0.058565 0.206179,0.6831 -0.033929,0.010233 -0.206488,-0.684107 z m -0.195839,0.052757 0.207932,0.688881 -0.033929,0.010233 -0.208234,-0.689895 z m -0.189265,0.05091 0.209638,0.694541 -0.033929,0.010226 -0.209946,-0.695562 z m -0.174473,0.046882 0.211229,0.699799 -0.033929,0.01024 -0.211538,-0.700853 z m -0.171203,0.045908 0.212814,0.70505 -0.033929,0.01024 -0.213136,-0.706124 z m -0.161346,0.043188 0.214324,0.710072 -0.033929,0.010233 -0.214653,-0.711147 z m -0.133379,0.035635 0.215593,0.714289 -0.033929,0.010226 -0.215922,-0.71537 z m -0.156458,0.041731 0.217111,0.719285 -0.033929,0.010233 -0.21744,-0.720393 z m 3.9294,-1.05606 0.181396,0.600973 -0.033922,0.010226 -0.181738,-0.602088 z"
   id="path19" />
  <path
   fill="#4d4948"
   d="m 5.0212073,2.6683641 c 0.018727,-0.00535 0.038253,0.00549 0.043611,0.02422 0.00535,0.018727 -0.00549,0.038253 -0.02422,0.043611 -0.018727,0.00535 -0.038253,-0.00549 -0.043611,-0.02422 -0.00535,-0.018727 0.00549,-0.038253 0.02422,-0.043611 z"
   id="path21" />
  <path
   fill="#4d4948"
   d="m 5.3377273,2.5778641 c 0.018734,-0.00536 0.03826,0.00549 0.043611,0.024213 0.00536,0.018734 -0.00549,0.03826 -0.024213,0.043611 -0.018727,0.00536 -0.038253,-0.00549 -0.043611,-0.024213 -0.00536,-0.018727 0.00549,-0.038253 0.024213,-0.043611 z"
   id="path23" />
  <path
   fill="#4d4948"
   d="m 5.6989073,2.4737441 c 0.018727,-0.00535 0.038253,0.00549 0.043611,0.02422 0.00536,0.018727 -0.00549,0.038253 -0.024213,0.043611 -0.018727,0.00535 -0.038253,-0.00549 -0.043611,-0.02422 -0.00536,-0.018727 0.00549,-0.038253 0.024213,-0.043611 z"
   id="path25" />
  <path
   fill="#4d4948"
   d="m 6.0865573,2.3630141 c 0.018727,-0.00535 0.038253,0.00549 0.043611,0.02422 0.00535,0.018727 -0.00549,0.038253 -0.02422,0.043611 -0.018727,0.00535 -0.038253,-0.00549 -0.043605,-0.02422 -0.00536,-0.018727 0.00549,-0.038253 0.024213,-0.043611 z"
   id="path27" />
  <path
   fill="#4d4948"
   d="m 7.5748473,1.9364741 c 0.018727,-0.00535 0.038253,0.00549 0.043611,0.02422 0.00536,0.018727 -0.00549,0.038253 -0.024213,0.043605 -0.018734,0.00536 -0.03826,-0.00549 -0.043611,-0.024213 -0.00536,-0.018727 0.00549,-0.038253 0.024213,-0.043612 z"
   id="path29" />
  <path
   fill="#4d4948"
   d="m 8.8985573,1.5596341 c 0.018727,-0.00536 0.038253,0.00549 0.043611,0.024213 0.00535,0.018727 -0.00549,0.038253 -0.02422,0.043611 -0.018727,0.00536 -0.038253,-0.00549 -0.043605,-0.024213 -0.00536,-0.018727 0.00549,-0.03826 0.024213,-0.043612 z"
   id="path31" />
  <path
   fill="#4d4948"
   d="m 8.2015473,1.7574541 c 0.018727,-0.00535 0.038253,0.00549 0.043612,0.024213 0.00536,0.018734 -0.00549,0.03826 -0.024213,0.043612 -0.018734,0.00536 -0.03826,-0.00549 -0.043611,-0.024213 -0.00536,-0.018727 0.00549,-0.038253 0.024213,-0.043611 z"
   id="path33" />
  <path
   fill="#4d4948"
   d="m 9.6829673,1.3346741 c 0.018727,-0.00535 0.038253,0.00549 0.043605,0.02422 0.00536,0.018727 -0.00549,0.038253 -0.024213,0.043611 -0.018727,0.00535 -0.038253,-0.00549 -0.043611,-0.02422 -0.00535,-0.018727 0.00549,-0.038253 0.02422,-0.043612 z"
   id="path35" />
  <path
   fill="#4d4948"
   d="m 6.7077173,1.9657341 c 0.018727,-0.00536 0.038253,0.00549 0.043611,0.024213 0.00535,0.018727 -0.00549,0.038253 -0.02422,0.043612 -0.018727,0.00535 -0.038253,-0.00549 -0.043605,-0.02422 -0.00536,-0.018727 0.00549,-0.038253 0.024213,-0.043605 z"
   id="path37" />
  <path
   fill="#4d4948"
   d="m 6.8418573,2.3920541 c 0.018727,-0.00536 0.038253,0.00549 0.043611,0.024213 0.00535,0.018734 -0.00549,0.03826 -0.02422,0.043611 -0.018727,0.00536 -0.038253,-0.00549 -0.043605,-0.024213 -0.00536,-0.018727 0.00549,-0.038253 0.024213,-0.043611 z"
   id="path39" />
  <path
   fill="#969594"
   d="m 11.297577,0.62253908 c 0.04567,-0.0115223 0.09204,0.0161688 0.10356,0.0618418 0.01152,0.0456729 -0.01617,0.0920442 -0.06184,0.10356 -0.04567,0.0115223 -0.09204,-0.0161688 -0.10356,-0.0618418 -0.01152,-0.0456729 0.01617,-0.0920442 0.06184,-0.10356 z"
   id="path41" />
  <path
   fill="#969594"
   d="m 11.630477,0.62061208 c 0.04567,-0.0115156 0.09204,0.0161755 0.10356,0.0618485 0.01152,0.0456729 -0.01617,0.0920375 -0.06184,0.10356 -0.04567,0.0115156 -0.09204,-0.0161688 -0.10356,-0.0618418 -0.01152,-0.0456729 0.01617,-0.0920442 0.06184,-0.1035667 z"
   id="path43" />
  <path
   fill="#969594"
   d="m 12.961877,0.61290308 c 0.04567,-0.0115223 0.09204,0.0161688 0.10356,0.0618418 0.01152,0.0456729 -0.01617,0.0920442 -0.06184,0.10356 -0.04567,0.0115223 -0.09204,-0.0161688 -0.10356,-0.0618418 -0.01152,-0.0456729 0.01617,-0.0920442 0.06184,-0.10356 z"
   id="path45" />
  <path
   fill="#969594"
   d="m 12.628977,0.61483008 c 0.04567,-0.0115156 0.09204,0.0161688 0.10356,0.0618418 0.01152,0.0456729 -0.01617,0.0920442 -0.06184,0.103566 -0.04567,0.0115156 -0.09204,-0.0161755 -0.103566,-0.0618485 -0.01151,-0.0456729 0.01618,-0.0920375 0.06185,-0.1035593 z"
   id="path47" />
  <path
   fill="#969594"
   d="m 12.296177,0.61675708 c 0.04567,-0.0115156 0.09204,0.0161755 0.10356,0.0618485 0.01152,0.0456729 -0.01618,0.0920375 -0.06185,0.10356 -0.04567,0.0115156 -0.09204,-0.0161755 -0.10356,-0.0618485 -0.01152,-0.0456729 0.01617,-0.0920375 0.06185,-0.10356 z"
   id="path49" />
  <path
   fill="#969594"
   d="m 11.963277,0.61868508 c 0.04567,-0.0115156 0.09204,0.0161755 0.103566,0.0618485 0.01152,0.0456729 -0.01618,0.0920375 -0.06185,0.10356 -0.04567,0.0115156 -0.09204,-0.0161755 -0.10356,-0.0618485 -0.01152,-0.0456729 0.01617,-0.0920375 0.06184,-0.10356 z"
   id="path51" />
  <path
   fill="#4d4948"
   d="m 2.5504573,3.9130141 0.015068,0.06027 c 0.00627,0.025099 -0.00165,0.048889 -0.017512,0.052851 l -0.303649,0.075889 c -0.01586,0.00396 -0.034037,-0.013302 -0.040315,-0.038401 l -0.015511,-0.062083 c -0.020433,-8.058e-4 -0.038952,-0.015155 -0.044209,-0.036199 l -0.208194,-0.833051 c -0.00637,-0.025469 0.00896,-0.051414 0.034057,-0.057685 l 0.479076,-0.119735 c 0.025099,-0.00627 0.050823,0.00942 0.057189,0.034883 l 0.208201,0.833051 c 0.00636,0.025469 -0.00896,0.051414 -0.034063,0.057692 l -0.130136,0.032519 z"
   id="path53" />
  <path
   fill="#c2c1c1"
   d="m 2.1784573,3.2610841 c 0.018277,-0.00457 0.036803,0.00655 0.041369,0.024811 0.00457,0.018284 -0.00655,0.036803 -0.024824,0.041376 -0.018271,0.00456 -0.03679,-0.00655 -0.041362,-0.024831 -0.00457,-0.01827 0.00655,-0.036789 0.024817,-0.041355 z m 0.396257,0.47087 c 0.026751,-0.00669 0.053878,0.00959 0.060559,0.036333 0.00669,0.026758 -0.00959,0.053878 -0.03634,0.060566 -0.026751,0.00668 -0.053872,-0.0096 -0.060559,-0.036346 -0.00668,-0.026751 0.00959,-0.053872 0.03634,-0.060553 z m -0.258366,0.080878 c 0.018284,-0.00457 0.036803,0.00655 0.041376,0.024824 0.00457,0.018271 -0.00655,0.036796 -0.024831,0.041362 -0.018264,0.00457 -0.036789,-0.00655 -0.041355,-0.024824 -0.00457,-0.01827 0.00655,-0.036796 0.02481,-0.041362 z m -0.034466,-0.137932 c 0.018277,-0.00457 0.036803,0.00655 0.041362,0.024817 0.00457,0.018277 -0.00655,0.036803 -0.024824,0.041369 -0.018264,0.00457 -0.03679,-0.00655 -0.041355,-0.024831 -0.00457,-0.018264 0.00655,-0.036789 0.024817,-0.041355 z m 0.258359,-0.080884 c 0.026751,-0.00669 0.053878,0.00959 0.060559,0.036333 0.00669,0.026758 -0.00959,0.053878 -0.036346,0.060566 -0.026744,0.00668 -0.053865,-0.0096 -0.060553,-0.036346 -0.00669,-0.026751 0.00959,-0.053872 0.036339,-0.060553 z m -0.034473,-0.137945 c 0.026751,-0.00668 0.053872,0.0096 0.060559,0.03634 0.00669,0.026751 -0.00959,0.053878 -0.036346,0.060559 -0.026744,0.00669 -0.053865,-0.00959 -0.060553,-0.03634 -0.00669,-0.026751 0.00959,-0.053872 0.036339,-0.060559 z m -0.258366,0.080891 c 0.018284,-0.00457 0.036803,0.00655 0.041369,0.024817 0.00457,0.018277 -0.00655,0.036803 -0.024824,0.041369 -0.018264,0.00457 -0.03679,-0.00655 -0.041362,-0.024831 -0.00456,-0.018264 0.00655,-0.03679 0.024817,-0.041355 z M 2.2129293,3.3990226 c 0.018284,-0.00457 0.036803,0.00655 0.041369,0.024811 0.00457,0.018284 -0.00655,0.036803 -0.024824,0.041376 -0.01827,0.00457 -0.036789,-0.00655 -0.041362,-0.024831 -0.00457,-0.018264 0.00655,-0.03679 0.024817,-0.041356 z m 0.258366,-0.080891 c 0.026751,-0.00669 0.053871,0.00959 0.060559,0.03634 0.00669,0.026751 -0.00959,0.053878 -0.036346,0.060559 -0.026744,0.00669 -0.053871,-0.00959 -0.060553,-0.036346 -0.00669,-0.026744 0.00959,-0.053865 0.03634,-0.060553 z m -0.03448,-0.137939 c 0.026758,-0.00669 0.053878,0.00959 0.060566,0.03634 0.00668,0.026751 -0.00959,0.053872 -0.036346,0.060559 -0.026744,0.00669 -0.053872,-0.00959 -0.060553,-0.036346 -0.00669,-0.026744 0.00959,-0.053865 0.036333,-0.060553 z m -0.034473,-0.137945 c 0.026758,-0.00669 0.053878,0.00959 0.060559,0.03634 0.00669,0.026751 -0.00959,0.053872 -0.03634,0.060559 -0.026751,0.00669 -0.053872,-0.00959 -0.060559,-0.036346 -0.00668,-0.026744 0.0096,-0.053872 0.03634,-0.060553 z m -0.258359,0.080891 c 0.018277,-0.00457 0.036803,0.00655 0.041369,0.024811 0.00457,0.018277 -0.00655,0.036803 -0.024831,0.041369 -0.018264,0.00457 -0.036789,-0.00655 -0.041355,-0.024824 -0.00457,-0.01827 0.00655,-0.036796 0.024817,-0.041355 z"
   id="path55" />
  <path
   fill="#4d4948"
   d="m 4.3488173,2.4342941 v 0 c 0.065844,-0.016451 0.133178,0.024011 0.149615,0.089788 l 0.159499,0.638192 c 0.016437,0.065777 -0.023944,0.133165 -0.089781,0.149615 v 0 C 4.5023063,3.3283467 4.434985,3.2879447 4.418535,3.2221078 L 4.259036,2.5839088 C 4.242578,2.5180718 4.28298,2.4507508 4.3488173,2.4342941 Z"
   id="path57" />
  <path
   fill="#c2c1c1"
   d="m 4.5265273,3.1575141 c 0.018277,-0.00457 0.036803,0.00655 0.041369,0.024817 0.00457,0.018277 -0.00655,0.036796 -0.024831,0.041369 -0.018264,0.00457 -0.03679,-0.00655 -0.041355,-0.024824 -0.00457,-0.018277 0.00655,-0.036796 0.024817,-0.041362 z m -0.032479,-0.129962 c 0.018277,-0.00457 0.036803,0.00655 0.041369,0.024817 0.00457,0.018277 -0.00655,0.036803 -0.024831,0.041369 -0.018264,0.00457 -0.03679,-0.00655 -0.041355,-0.024831 -0.00457,-0.018264 0.00655,-0.036789 0.024817,-0.041355 z m -0.032479,-0.129962 c 0.018277,-0.00457 0.036803,0.00655 0.041369,0.024817 0.00457,0.018277 -0.00655,0.036803 -0.024831,0.041369 -0.018264,0.00457 -0.03679,-0.00655 -0.041355,-0.024831 -0.00457,-0.018264 0.00655,-0.036789 0.024817,-0.041355 z m -0.032479,-0.129955 c 0.018277,-0.00457 0.036803,0.00655 0.041369,0.024811 0.00457,0.018284 -0.00655,0.036803 -0.024831,0.041376 -0.018264,0.00456 -0.036789,-0.00655 -0.041355,-0.024831 -0.00457,-0.01827 0.00655,-0.036789 0.024817,-0.041355 z m -0.032479,-0.129962 c 0.018277,-0.00457 0.036803,0.00655 0.041362,0.024817 0.00457,0.018277 -0.00655,0.036803 -0.024824,0.041369 -0.018264,0.00457 -0.03679,-0.00655 -0.041355,-0.024831 -0.00457,-0.018264 0.00655,-0.03679 0.024817,-0.041355 z m -0.032485,-0.129962 c 0.018284,-0.00457 0.036803,0.00655 0.041369,0.024817 0.00457,0.018277 -0.00655,0.036803 -0.024824,0.041369 -0.018264,0.00457 -0.036789,-0.00655 -0.041355,-0.024831 -0.00457,-0.018264 0.00655,-0.036789 0.024811,-0.041355 z"
   id="path59" />
  <path
   fill="#4d4948"
   d="m 3.5891573,2.6417341 v 0 c 0.065837,-0.016458 0.133178,0.024012 0.149615,0.089781 l 0.159493,0.638199 c 0.016444,0.065777 -0.023944,0.133165 -0.089781,0.149615 v 0 C 3.742647,3.535787 3.675326,3.495385 3.658869,3.4295481 L 3.49937,2.7913491 c -0.016451,-0.065837 0.023944,-0.133158 0.089787,-0.149615 z"
   id="path61" />
  <path
   fill="#c2c1c1"
   d="m 3.7698473,3.3769041 c 0.018284,-0.00457 0.036803,0.00655 0.041376,0.024817 0.00457,0.018277 -0.00655,0.036796 -0.024831,0.041369 -0.018264,0.00457 -0.03679,-0.00655 -0.041355,-0.024824 -0.00457,-0.018271 0.00655,-0.036796 0.024811,-0.041362 z m -0.032479,-0.129962 c 0.018284,-0.00457 0.036803,0.00655 0.041369,0.024817 0.00457,0.018277 -0.00655,0.036803 -0.024824,0.041369 -0.01827,0.00457 -0.036789,-0.00655 -0.041362,-0.024831 -0.00456,-0.018264 0.00655,-0.03679 0.024817,-0.041355 z m -0.032479,-0.129955 c 0.018284,-0.00457 0.036803,0.00655 0.041369,0.024811 0.00457,0.018277 -0.00655,0.036803 -0.024824,0.041369 -0.01827,0.00457 -0.036789,-0.00655 -0.041362,-0.024831 -0.00457,-0.018264 0.00655,-0.03679 0.024817,-0.041349 z m -0.032479,-0.129962 c 0.018277,-0.00457 0.036803,0.00655 0.041369,0.024811 0.00457,0.018284 -0.00655,0.036803 -0.024824,0.041376 -0.01827,0.00457 -0.036796,-0.00655 -0.041362,-0.024831 -0.00457,-0.018271 0.00655,-0.03679 0.024817,-0.041356 z m -0.032479,-0.129962 c 0.018277,-0.00457 0.036803,0.00655 0.041369,0.024817 0.00457,0.018277 -0.00655,0.036803 -0.024831,0.041369 -0.018264,0.00457 -0.036789,-0.00655 -0.041355,-0.024831 -0.00457,-0.018264 0.00655,-0.036789 0.024817,-0.041355 z m -0.032479,-0.129962 c 0.018277,-0.00457 0.036803,0.00655 0.041369,0.024817 0.00457,0.018277 -0.00655,0.036803 -0.024831,0.041369 -0.018264,0.00457 -0.036789,-0.00655 -0.041355,-0.024831 -0.00457,-0.018264 0.00655,-0.03679 0.024817,-0.041355 z"
   id="path63" />
  <path
   fill="#4d4948"
   d="m 2.9243073,2.8372841 v 0 c 0.067657,-0.00528 0.12733,0.045827 0.132594,0.113417 l 0.051132,0.655838 c 0.00527,0.067589 -0.04576,0.127323 -0.113417,0.132601 v 0 c -0.067663,0.00527 -0.127323,-0.04576 -0.132601,-0.113424 L 2.81089,2.9698851 C 2.80561,2.9022221 2.856644,2.8425621 2.9243073,2.8372841 Z"
   id="path65" />
  <path
   fill="#c2c1c1"
   d="m 2.9281673,2.9245141 c 0.018781,-0.00146 0.035191,0.012576 0.036655,0.031344 0.00146,0.018788 -0.01257,0.035205 -0.031357,0.036669 -0.018767,0.00146 -0.035191,-0.012583 -0.036649,-0.031357 -0.00146,-0.018774 0.012577,-0.035191 0.031351,-0.036656 z m 0.010401,0.133547 c 0.018788,-0.00146 0.035205,0.012583 0.036669,0.031357 0.00146,0.018774 -0.012576,0.035191 -0.031357,0.036662 -0.018774,0.00146 -0.035191,-0.012576 -0.036655,-0.031364 -0.00146,-0.018767 0.012583,-0.035191 0.031343,-0.036655 z m 0.010414,0.133554 c 0.018788,-0.00146 0.035205,0.012583 0.036669,0.031351 0.00146,0.018788 -0.012583,0.035198 -0.031364,0.036669 -0.018767,0.00146 -0.035185,-0.012583 -0.036655,-0.031364 -0.00146,-0.018774 0.012583,-0.035191 0.031351,-0.036655 z m 0.010414,0.133547 c 0.018781,-0.00146 0.035205,0.012583 0.036669,0.031357 0.00146,0.018781 -0.012583,0.035198 -0.031371,0.036662 -0.018767,0.00146 -0.035185,-0.012577 -0.036648,-0.031364 -0.00146,-0.018767 0.012576,-0.035185 0.03135,-0.036655 z m 0.010414,0.133561 c 0.018781,-0.00147 0.035198,0.012576 0.036662,0.031344 0.00146,0.018787 -0.012577,0.035205 -0.031364,0.036669 -0.018767,0.00146 -0.035185,-0.012583 -0.036648,-0.031364 -0.00147,-0.018774 0.012576,-0.035191 0.031351,-0.036648 z m 0.010408,0.133547 c 0.018788,-0.00146 0.035205,0.012577 0.036669,0.031357 0.00146,0.018774 -0.012576,0.035191 -0.031364,0.036655 -0.018774,0.00146 -0.035191,-0.012576 -0.036649,-0.031357 -0.00147,-0.018774 0.012577,-0.035191 0.031344,-0.036655 z"
   id="path67" />
  <g
   id="_146653792"
   transform="translate(0.03107727,0.29523408)">
   <path
   id="_146653936"
   fill="#838281"
   d="M 1.88971,5.06191 C 2.01949,4.91116 2.118901,4.740118 2.209192,4.555304 2.339758,4.288055 1.93132,4.090531 1.802896,4.358814 1.7140816,4.544339 1.641725,4.728461 1.604136,4.923803 1.5516209,5.196659 1.708428,5.272494 1.889709,5.06191 Z" />
   <path
   id="_146652976"
   fill="#c2c1c1"
   d="M 1.91564,4.92212 C 2.0143115,4.807434 2.095579,4.68089 2.168547,4.545516 L 1.83581,4.3846 C 1.7749889,4.525842 1.726234,4.668004 1.697623,4.816687 1.6451012,5.089543 1.7344796,5.132684 1.91564,4.92212 Z" />
   <ellipse
   id="_146652232"
   fill="#383431"
   transform="matrix(0.900248,0.435376,-0.435376,0.900248,1.95556,4.56144)"
   rx="0.058752999"
   ry="0.029376499"
   cx="0"
   cy="0" />
   <path
   id="_146653120"
   fill="none"
   d="M 1.85418,4.41451 C 1.816041,4.511369 1.818895,4.612813 1.899779,4.651933 1.965596,4.683767 2.055981,4.627398 2.134677,4.550166" />
   <path
   id="_146653720"
   fill="#72706f"
   fill-rule="nonzero"
   d="M 1.86518,4.41886 C 1.836999,4.490492 1.820266,4.60033 1.904931,4.641275 l 5.37e-5,8.06e-5 c 0.075909,0.036662 0.175138,-0.054167 0.221422,-0.099605 0.01261,-0.00622 0.018123,-6.178e-4 0.016531,0.01684 -0.055295,0.054281 -0.160977,0.146117 -0.248226,0.104003 l -2.01e-5,4.03e-5 -7.39e-5,-3.36e-5 c -0.097416,-0.04711 -0.084477,-0.168329 -0.051642,-0.251933 l 1.947e-4,-4.969e-4 c 0.015967,-0.018969 0.024817,-0.010005 0.02201,0.00869 z" />
  </g>
  <path
   fill="#4d4948"
   d="m 2.6351573,4.9408941 c 0.094475,-0.023609 0.190246,0.033862 0.213861,0.128337 0.023609,0.094482 -0.033862,0.190252 -0.128337,0.213861 -0.094482,0.023609 -0.190252,-0.033862 -0.213861,-0.128337 -0.023609,-0.094475 0.033862,-0.190246 0.128337,-0.213861 z"
   id="path75" />
  <path
   fill="#c2c1c1"
   d="m 2.6522573,5.0093341 c 0.056692,-0.014168 0.114149,0.020312 0.128317,0.077003 0.014168,0.056685 -0.020312,0.114149 -0.077003,0.12831 -0.056685,0.014168 -0.114149,-0.020312 -0.12831,-0.076997 -0.014168,-0.056691 0.020311,-0.1141483 0.076996,-0.128316 z"
   id="path77" />
  <path
   fill="#4d4948"
   d="m 2.9003973,4.4504441 c 0.094475,-0.023609 0.190246,0.033862 0.213854,0.128343 0.023615,0.094475 -0.033855,0.190246 -0.128337,0.213854 -0.094475,0.023609 -0.190246,-0.033862 -0.213854,-0.128337 -0.023615,-0.094475 0.033862,-0.190246 0.128337,-0.21386 z"
   id="path79" />
  <path
   fill="#c2c1c1"
   d="m 2.9174973,4.5188841 c 0.056685,-0.014168 0.114149,0.020312 0.128317,0.077003 0.014168,0.056685 -0.020318,0.114149 -0.077003,0.128317 -0.056685,0.014162 -0.1141494,-0.020318 -0.1283174,-0.077003 -0.014168,-0.056692 0.020319,-0.114149 0.077003,-0.128317 z"
   id="path81" />
  <path
   fill="#4d4948"
   d="m 3.0116473,3.8772841 c 0.094475,-0.023609 0.190246,0.033862 0.213854,0.128337 0.023615,0.094475 -0.033855,0.190246 -0.128337,0.213861 -0.094475,0.023609 -0.190246,-0.033862 -0.213854,-0.128337 -0.023615,-0.094482 0.033862,-0.190246 0.128337,-0.213861 z"
   id="path83" />
  <path
   fill="#c2c1c1"
   d="m 3.0287473,3.9457341 c 0.056692,-0.014168 0.114149,0.020312 0.128317,0.076997 0.014168,0.056692 -0.020318,0.114149 -0.077003,0.128317 -0.056685,0.014168 -0.114149,-0.020312 -0.128317,-0.077003 -0.014168,-0.056686 0.020318,-0.1141427 0.077003,-0.128311 z"
   id="path85" />
  <path
   fill="#aaa9a9"
   fill-rule="nonzero"
   d="m 2.4244573,3.9311741 c 0.05598,0.030364 0.116821,0.05878 0.170585,0.092622 0.116579,0.097685 0.568232,0.299667 0.673256,0.341661 0.215318,0.086102 0.425291,0.150159 0.632888,0.204414 0.048285,-0.00969 0.12831,-0.00106 0.214257,0.026174 0.052797,0.016719 0.132258,0.048245 0.168443,0.070383 0.052871,0.032391 0.050353,0.05645 0.042275,0.081939 -0.00807,0.025462 -0.019909,0.04666 -0.081778,0.042611 -0.042336,-0.00278 -0.125436,-0.022776 -0.178206,-0.039543 -0.084134,-0.02665 -0.153355,-0.064648 -0.188023,-0.099766 -0.210148,-0.054979 -0.422861,-0.119923 -0.641294,-0.207274 -0.222254,-0.088861 -0.450189,-0.200761 -0.686947,-0.34861 -0.055288,-0.029994 -0.11057,-0.059982 -0.165851,-0.089969 -0.030558,-0.013879 0.00989,-0.087754 0.040395,-0.07464 z"
   id="path87" />
 </g>
</svg>
