<?xml version="1.0" encoding="UTF-8" standalone="no"?>
<svg
   width="1600"
   height="1600"
   version="1.1"
   viewBox="0 0 1200.0001 1200"
   id="svg4"
   sodipodi:docname="maneline-logo.svg"
   inkscape:version="1.2.2 (b0a8486541, 2022-12-01)"
   inkscape:export-filename="maneline-logo.png"
   inkscape:export-xdpi="30.719999"
   inkscape:export-ydpi="30.719999"
   xmlns:inkscape="http://www.inkscape.org/namespaces/inkscape"
   xmlns:sodipodi="http://sodipodi.sourceforge.net/DTD/sodipodi-0.dtd"
   xmlns="http://www.w3.org/2000/svg"
   xmlns:svg="http://www.w3.org/2000/svg">
  <defs
     id="defs8">
    <!--
    based on the example at
    https://developer.mozilla.org/en-US/docs/Web/SVG/Tutorials/SVG_from_scratch/Patterns
    -->
    <linearGradient
       id="Gradient1">
      <stop
         offset="5%"
         stop-color="cyan"
         id="stop296" />
      <stop
         offset="95%"
         stop-color="white"
         id="stop298" />
    </linearGradient>
    <linearGradient
       id="Gradient2"
       x1="0"
       x2="0"
       y1="0"
       y2="1">
      <stop
         offset="5%"
         stop-color="red"
         id="stop301" />
      <stop
         offset="95%"
         stop-color="orange"
         id="stop303" />
    </linearGradient>
    <pattern
       id="Pattern"
       x="0"
       y="0"
       width="100%"
       height="100%">
      <rect
         x="0"
         y="0"
         width="100%"
         height="100%"
         fill="skyblue"
         id="rect306" />
      <rect
         x="0"
         y="0"
         width="100%"
         height="100%"
         fill="url(#Gradient2)"
         id="rect308" />
      <circle
         cx="50%"
         cy="50%"
         r="40%"
         fill="url(#Gradient1)"
         fill-opacity="0.8"
         id="circle310" />
    </pattern>
  </defs>
  <sodipodi:namedview
     id="namedview6"
     pagecolor="#ffffff"
     bordercolor="#000000"
     borderopacity="0.25"
     inkscape:showpageshadow="2"
     inkscape:pageopacity="0.0"
     inkscape:pagecheckerboard="0"
     inkscape:deskcolor="#d1d1d1"
     inkscape:document-units="pt"
     showgrid="false"
     inkscape:zoom="0.464375"
     inkscape:cx="610.49798"
     inkscape:cy="752.6245"
     inkscape:window-width="1920"
     inkscape:window-height="1018"
     inkscape:window-x="0"
     inkscape:window-y="30"
     inkscape:window-maximized="1"
     inkscape:current-layer="svg4" />
  <rect
     width="100%"
     height="100%"
     fill="url(#Pattern)"
     id="rect315" />
  <path
     d="m 820.46752,390.78421 c 2.0156,2.0742 -2.0273,4.043 -2.0273,4.043 0,0 -14.051,4.043 -18.098,10.055 -4.043,4.0547 -10.008,18.047 -10.008,18.047 8.0391,-1.9688 18.098,-4.043 28.105,-8.1016 2.0273,0 4.043,2.0898 6.0703,4.0547 1.9688,0 -24.168,10.055 -30.133,13.992 -4.043,4.1641 -24.109,20.23 -30.121,20.23 -6.0117,0 -20.125,1.9688 -20.125,1.9688 2.0273,4.043 4.043,7.9805 7.9805,13.992 0,0 -13.992,8.1016 -13.992,10.066 -1.9688,2.0742 -12.035,14.113 -12.035,14.113 0,0 36.145,3.9258 48.18,-16.078 -12.035,20.004 -40.141,40.129 -98.41,40.129 -60.254,0 -108.41,-24.047 -140.55,-36.086 -34.176,-13.992 -78.336,-30.18 -114.49,-30.18 -34.117,0 -74.293,10.055 -100.38,34.223 -46.199,-18.035 -110.48,-8.0898 -140.62,20.016 -28.105,28.105 -56.207,62.328 -60.254,86.281 -6.0117,26.242 -20.061997,88.453 -40.140997,116.68 -28.152,46.02 -60.254,58.164 -70.3089995,78.168 -10.05500002,20.125 -10.05500002,62.328 -8.0898,62.328 4.043,1.9688 18.1559995,0 26.1839995,-4.0547 16.078,-6.0117 60.203,-52.152 76.272997,-74.242 16.066,-22.199 70.367,-118.63 78.348,-152.64 8.0391,-34.117 16.066,-68.34 40.188,-86.387 26.137,-18.047 58.176,-10.055 58.176,-7.9805 0,0 -30.07,24.059 -32.039,90.324 -2.0742,66.254 38.113,58.273 18.035,100.38 -20.113,36.18 -80.305,12.023 -100.37,34.105 -16.078,18.156 0,82.332 0,94.355 0,12.145 -6.1211,68.34 -10.055,82.453 -2.0742,12.023 0,20.004 -2.0742,28.105 -1.9688,6.1211 12.145,7.9805 12.145,7.9805 0,0 -12.145,15.96097 -18.156,12.133 -6.0117,-2.0742 -10.008,-2.0742 -14.004,0 -4.043,0 -12.023,3.82807 -20.113,0 l -32.159997,68.24189 c 4.0547,2.0742 10.066,3.9375 16.078,2.0742 8.089797,-2.0742 48.226997,-20.23 52.261997,-24.266 6.0117,-1.9688 40.141,-21.98395 46.152,-34.00795 4.043,-12.03494 12.023,-50.29294 12.023,-62.21894 2.0273,-12.145 4.043,-50.305 4.043,-60.254 0,-10.055 -2.0156,-28.105 0,-36.191 4.0547,-6.0117 10.066,-14.113 18.109,-18.156 9.9961,-1.9688 22.031,-1.9688 24.047,-1.9688 4.0547,0 38.219,4.043 44.184,4.043 8.0391,0 40.188,-6.0117 48.227,-10.164 10.055,-1.8594 16.02,0 18.098,4.1523 3.9961,3.9375 -4.043,9.9492 -4.043,12.035 -1.9688,1.957 -18.047,22.078 -22.094,30.059 -4.043,10.066 -18.047,28.105 -13.992,36.203 3.9844,7.9805 3.9844,10.055 16.02,16.188 12.086,3.8164 58.223,28.105 84.348,52.164 28.105,25.90597 54.238,58.05489 58.297,74.24189 5.9531,18.156 16.008,20.016 22.031,20.016 6.0703,2.0742 18.098,4.043 18.098,12.133 0,7.9922 -2.0742,18.047 -2.0742,18.047 l 74.352,28.117 c 0,0 0,-26.148 -1.9688,-36.098 -2.0273,-12.035 -14.113,-24.059 -24.18,-36.203 -9.9961,-14.102 -114.36,-116.44989 -124.49,-124.53989 -9.9961,-6.0234 -18.098,-14.004 -20.062,-30.07 -2.0742,-16.188 18.047,-28.105 30.191,-42.109 7.9805,-10.055 30.07,-56.305 34.055,-62.426 3.9961,-5.9023 18.098,-21.984 26.074,-21.984 10.066,0 32.16,14.113 60.301,24.059 12.035,4.043 98.352,26.027 110.5,30.18 12.023,1.9688 38.051,0 46.152,7.9805 7.9805,6.0117 0,22.199 -2.0273,32.148 -2.0273,12.035 -24.059,56.207 -24.059,56.207 0,0 3.9961,15.973 3.9961,28.223 0,13.992 -6.0117,64.18794 -12.035,80.14789 -4.043,18.156 -32.148,64.402 -38.219,72.395 -3.9844,6.0117 -9.9961,10.066 -9.9961,20.125 0,9.9492 18.035,12.145 24.047,20.016 8.1016,6.1211 2.0273,18.035 0,30.18 l 80.363,34.117 c 0,-6.0117 4.0547,-16.078 0,-20.125 -2.0742,-5.9023 -12.023,-18.035 -18.035,-26.137 -4.043,-6.0117 -18.098,-28.105 -22.094,-32.148 -4.043,-5.9023 -4.043,-17.93 0,-28.117 1.9688,-9.9375 28.105,-78.191 30.07,-86.26995 4.043,-9.9492 42.215,-90.43394 46.199,-100.37994 4.043,-12.023 36.145,-70.297 40.188,-80.363 3.9961,-12.133 30.133,-22.094 38.172,-22.094 9.9961,0 60.254,18.047 68.23,22.094 6.0117,1.9688 52.273,22.199 60.254,26.137 10.06598,3.9375 4.04298,12.035 -1.9688,14.113 -6.0117,3.9375 -80.375,54.133 -86.387,56.207 -6.0117,1.9688 -12.023,7.8711 -16.078,7.8711 -6.0117,0 -14.051,6.2383 -14.051,8.207 0,4.043 -1.9688,12.023 -12.023,12.023 -8.0391,0 -24.109,-12.023 -34.117,-24.059 -14.113,7.9805 -24.121,14.113 -30.18,26.027 -10.008,9.9492 -14.051,18.156 -20.074,32.148 4.0547,4.04297 12.086,5.90227 18.047,5.90227 h 64.285 c 6.0234,0 14.051,-1.8594 20.125,-3.82807 6.0117,-4.043 164.63998,-108.47 164.63998,-108.47 0,0 26.184,-20.125 26.184,-38.16 0,-14.113 -12.133,-18.156 -16.066,-24.168 -6.0703,-3.9375 -42.215,-28.105 -48.227,-32.039 -8.1016,-6.0117 -36.20298,-22.199 -44.18398,-26.242 -6.0703,-3.9375 -28.211,-11.914 -28.211,-11.914 6.1211,-18.156 10.117,-32.16 12.086,-36.203 2.0742,-4.043 2.0742,-40.246 3.9961,-46.246 0,-5.9023 10.117,-32.039 14.102,-36.086 4.043,-4.043 14.113,-36.191 16.078,-42.215 2.0742,-3.9375 18.03498,-50.184 26.13698,-50.184 7.9805,-1.9688 16.066,6.0117 24.059,6.0117 8.0898,1.9688 38.16,-1.9688 54.238,0 14.102,1.9688 32.148,20.125 36.191,22.094 6.0117,2.0742 20.016,7.9805 24.059,7.9805 2.0273,0 22.094,-14.004 22.094,-17.941 0,-4.1523 -14.113,-12.133 -16.078,-12.133 -1.9688,-1.9688 -16.02,-10.066 -16.02,-10.066 0,2.0898 5.9648,-3.9375 16.02,-3.9375 8.0391,0 16.078,7.9922 18.047,10.066 4.043,1.9688 14.102,7.9805 16.066,3.9375 2,-2.0117 10.039,-12.078 10.039,-18.078 0,-8.0898 -8.0391,-18.035 -12.035,-22.094 -3.9844,-4.043 -50.195,-48.109 -54.238,-50.184 -6.0117,-1.9688 -30.07,-24.18 -30.07,-30.07 -2.0742,-4.1641 -14.102,-14.113 -16.066,-16.188 -2.0898,-1.9688 -62.27,-44.062 -70.309,-50.305 -8.0391,-5.9023 -16.078,-15.961 -16.078,-26.016 0,-9.9492 -4.04298,-36.086 -4.04298,-36.086 0,0 -13.992,-1.9688 -20.062,3.9375 -5.9648,4.1523 -20.062,36.301 -28.105,36.301 -22.152,-4.1523 -50.258,1.9688 -50.258,5.9023 2.0742,6.0117 22.141,1.9688 22.141,1.9688 0,2.0742 -8.0391,12.023 -14.113,12.023 -3.9844,0 -16.02,4.043 -18.035,6.0117 -3.9961,0 -12.035,6.2383 -12.035,6.2383 5.9648,0 12.035,0 20.074,1.8477 0,0 -12.035,8.1016 -18.109,8.1016 -5.9531,0 -26.074,6.0117 -32.09,7.9805 -4.043,3.9375 -20.125,16.078 -20.125,16.078 h -18.047 l 1.9688,4.043 h 10.066 v 1.9805 z"
     fill="#634531"
     fill-rule="evenodd"
     id="path2"
     style="fill:#a05a2c" />
  <path
     fill="#1860a2"
     d="M 62.23604,344.56153 C 45.577341,305.71362 34.35084,265.48576 24.204459,225.28064 14.526226,186.92692 32.706014,156.92863 71.583153,138.3255 106.55219,121.59307 147.85728,110.29363 205.1046,121.98086 c 65.8388,13.44177 118.15753,6.3512 161.5027,-23.461428 53.77713,-36.987867 105.05474,-48.773398 144.32265,-31.542197 22.56413,9.901 17.24588,28.372501 -6.3851,35.590775 -18.87395,5.76458 -38.69744,8.45135 -45.65414,20.39003 -14.19085,24.35429 12.05822,39.07764 35.82968,50.21442 1.06229,13.14639 2.12451,26.29271 3.18682,39.4391 -18.08793,4.35165 -39.10026,7.14852 -49.08999,19.42785 -13.74815,16.89912 -2.14586,30.11656 19.87721,39.43999 14.75374,6.24567 29.62773,3.33458 45.65121,5.77408 14.53823,2.21344 24.52908,13.35926 13.98686,25.87639 -15.85703,18.82847 -47.63761,27.52898 -108.48645,21.25206 -43.10426,-4.4463 -72.56957,6.31133 -92.28763,24.61975 -43.26315,35.79737 -91.37956,60.70115 -147.27149,64.82489 -52.95876,3.90723 -96.679901,-19.43141 -118.050804,-69.26552 z"
     id="path11"
     style="fill:#222b00;stroke-width:76.2036" />
  <path
     fill="#e3d9ba"
     d="m 217.97577,254.93675 c -10.96416,-18.86428 -30.25771,-40.4117 -0.36151,-68.16108 21.70985,-20.15128 54.44403,-17.06625 81.07344,-13.839 47.30819,5.73327 87.96161,0.0972 126.7002,-19.50846 10.05041,-5.08688 22.89179,-2.41003 22.44449,6.63482 -1.34316,27.14847 -13.73947,53.38822 -16.56557,80.46625 -3.36594,32.24209 24.23546,47.15118 74.95703,47.77315 13.44993,0.16529 8.9084,13.5912 -1.34426,17.61123 -24.02512,9.42126 -53.57306,8.8944 -83.67705,4.41053 -40.69646,-6.0617 -71.51594,4.00278 -97.38741,26.43225 -22.57736,19.57369 -49.40147,37.09885 -84.02037,47.10225 -18.504,5.34691 -35.37944,-1.26795 -29.43467,-12.21137 13.51173,-24.87302 29.49302,-46.29448 20.98057,-73.15966 -4.5918,-14.49093 -5.46792,-29.96348 -13.36499,-43.55063 z"
     id="path13"
     style="stroke-width:76.2036" />
  <path
     fill="#c9b593"
     d="m 935.98089,70.202657 c 16.6569,-3.313318 31.58002,-6.548267 37.16526,-22.39776 l 166.02495,-1.944775 c 54.7844,-0.640996 40.0151,28.576788 4.8226,50.600384 -18.456,-42.087838 -76.5706,19.298224 -107.6894,26.815984 -17.8654,-18.42758 -46.53837,-27.110407 -83.52331,-18.36733 L 431.75673,228.08623 C 427.13431,227.81097 411.724,178.98535 416.42329,178.51869 589.60944,142.41328 762.27917,104.75115 935.98175,70.20307 Z"
     id="path15"
     style="stroke-width:76.2036" />
  <path
     fill="#969594"
     d="m 996.18849,35.893438 c 4.97841,-0.438059 9.32921,1.397083 9.71581,4.098388 0.3874,2.701299 -3.3353,5.247674 -8.3137,5.685733 -4.97841,0.43853 -9.32861,-1.397083 -9.71583,-4.098388 -0.38735,-2.7013 3.33529,-5.247224 8.31372,-5.685733 z m 142.65971,-1.328681 c 4.9784,-0.438529 9.3298,1.396633 9.7164,4.097938 0.3873,2.701299 -3.3362,5.247222 -8.3137,5.685733 -4.9776,0.438057 -9.3293,-1.397083 -9.7164,-4.098388 -0.3873,-2.700847 3.3362,-5.247224 8.3137,-5.685283 z m -114.1267,1.183264 c 4.9784,-0.437587 9.3286,1.397534 9.7158,4.098841 0.3873,2.700847 -3.3353,5.247222 -8.3137,5.68528 -4.9784,0.43853 -9.3286,-1.39663 -9.7159,-4.098388 -0.3873,-2.701299 3.3353,-5.247224 8.3138,-5.685733 z m 85.5986,-0.435359 c 4.9785,-0.438059 9.3287,1.397083 9.7159,4.098388 0.3873,2.701299 -3.3353,5.247675 -8.3137,5.685733 -4.9785,0.43853 -9.3286,-1.396631 -9.7159,-4.098388 -0.3873,-2.701299 3.3353,-5.247224 8.3137,-5.685733 z m -57.0656,0.290374 c 4.9785,-0.438058 9.3286,1.397083 9.7159,4.098389 0.3873,2.701299 -3.3353,5.247674 -8.3137,5.685732 -4.9785,0.43853 -9.3287,-1.397083 -9.7159,-4.098388 -0.3873,-2.701299 3.3353,-5.247224 8.3137,-5.685733 z m 28.5326,-0.144982 c 4.9784,-0.438058 9.3286,1.397083 9.7158,4.098389 0.3874,2.700847 -3.3353,5.247224 -8.3137,5.68528 -4.9784,0.43853 -9.3286,-1.39663 -9.7158,-4.098388 -0.3874,-2.701299 3.3353,-5.247224 8.3137,-5.685281 z"
     id="path17"
     style="stroke-width:76.2036" />
  <path
     fill="#969594"
     fill-rule="nonzero"
     d="m 946.40425,67.950299 13.64926,35.443971 c -0.98295,0.17743 -1.97278,0.36769 -2.96691,0.57009 L 943.48329,68.639737 c 0.98553,-0.222436 1.959,-0.450743 2.92131,-0.689437 z m -42.17605,8.602681 14.05965,36.51081 -2.92042,0.69038 -14.09609,-36.605936 z m -39.78391,8.052293 14.53701,37.751167 -2.92034,0.69039 -14.57171,-37.83996 z m -34.07501,6.969998 14.92021,38.745959 -2.91973,0.69086 -14.95259,-38.829824 z m -35.61295,7.348755 15.29815,39.727674 -2.92093,0.69038 -15.32821,-39.806473 z m -60.25871,12.555664 15.89462,41.27696 -2.92035,0.68991 -15.92235,-41.34943 z m -29.90051,6.27509 16.17489,42.00405 -2.92035,0.69085 -16.20208,-42.07515 z m -26.06761,5.48959 16.41244,42.6215 -2.91974,0.68991 -16.43965,-42.68991 z m -26.11323,5.51131 16.64596,43.22809 -2.91975,0.69086 -16.67257,-43.29651 z m -23.79393,5.02981 16.85633,43.77396 -2.92034,0.69038 -16.88233,-43.84102 z m -22.94267,4.85494 17.05688,44.2954 -2.91975,0.69037 -17.08347,-44.36238 z m -20.81815,4.40554 17.23952,44.76874 -2.92034,0.68991 -17.2649,-44.83492 z m -21.10071,4.46667 17.42389,45.24714 -2.92036,0.68991 -17.44987,-45.31373 z m -17.98619,3.80529 17.58105,45.65666 -2.92035,0.68991 -17.60765,-45.72372 z m -18.69535,3.95116 17.74632,46.08615 -2.92034,0.69038 -17.77291,-46.15409 z m -16.85631,3.55931 17.89719,46.47617 -2.92034,0.69039 -17.92319,-46.54458 z m -16.29049,3.43471 18.04403,46.85802 -2.92034,0.68991 -18.07054,-46.9269 z m -15.0173,3.16295 18.18098,47.21277 -2.92034,0.69085 -18.20757,-47.28388 z m -14.73584,3.09723 18.31741,47.56704 -2.92037,0.69085 -18.34511,-47.63949 z m -13.88742,2.91373 18.44736,47.90586 -2.92035,0.69037 -18.47568,-47.97838 z m -11.48024,2.40416 18.55658,48.19037 -2.92035,0.68989 -18.5849,-48.26328 z m -13.46671,2.81543 18.68725,48.52743 -2.92036,0.69037 -18.71557,-48.60217 z m 338.21266,-71.24834 15.61318,40.54536 -2.91975,0.68991 -15.64262,-40.62059 z"
     id="path19"
     style="stroke-width:76.2036" />
  <path
     fill="#4d4948"
     d="m 451.16381,194.60646 c 1.61188,-0.36093 3.29254,0.3704 3.75371,1.63404 0.46047,1.26344 -0.47255,2.58077 -2.08468,2.94227 -1.61188,0.36094 -3.29252,-0.3704 -3.75369,-1.63403 -0.4605,-1.26345 0.47253,-2.5808 2.08466,-2.94228 z"
     id="path21"
     style="stroke-width:76.2036" />
  <path
     fill="#4d4948"
     d="m 478.40743,188.50078 c 1.61248,-0.36162 3.29313,0.37038 3.75371,1.63356 0.46133,1.2639 -0.47255,2.58125 -2.08409,2.94225 -1.61186,0.36163 -3.29251,-0.37038 -3.75368,-1.63355 -0.46136,-1.26343 0.47252,-2.58078 2.08406,-2.94226 z"
     id="path23"
     style="stroke-width:76.2036" />
  <path
     fill="#4d4948"
     d="m 509.49504,181.4762 c 1.61189,-0.36095 3.29252,0.37038 3.75371,1.63403 0.46133,1.26343 -0.47255,2.58078 -2.08408,2.94226 -1.61187,0.36095 -3.29252,-0.37038 -3.75369,-1.63402 -0.46135,-1.26344 0.47253,-2.58079 2.08406,-2.94227 z"
     id="path25"
     style="stroke-width:76.2036" />
  <path
     fill="#4d4948"
     d="m 542.86098,174.00567 c 1.61189,-0.36095 3.29252,0.37038 3.75371,1.63402 0.46048,1.26344 -0.47255,2.58079 -2.08467,2.94227 -1.61189,0.36096 -3.29254,-0.37038 -3.75318,-1.63403 -0.46136,-1.26343 0.47252,-2.58078 2.08406,-2.94226 z"
     id="path27"
     style="stroke-width:76.2036" />
  <path
     fill="#4d4948"
     d="m 670.96159,145.22864 c 1.61187,-0.36095 3.29252,0.37039 3.75369,1.63403 0.46135,1.26344 -0.47253,2.58078 -2.08406,2.94186 -1.61248,0.36162 -3.29313,-0.37039 -3.75369,-1.63356 -0.46135,-1.26343 0.47253,-2.58078 2.08406,-2.94233 z"
     id="path29"
     style="stroke-width:76.2036" />
  <path
     fill="#4d4948"
     d="m 784.89641,119.80467 c 1.61187,-0.36162 3.29252,0.37039 3.75369,1.63356 0.4605,1.26344 -0.47253,2.58078 -2.08465,2.94227 -1.61189,0.36162 -3.29254,-0.37039 -3.7532,-1.63356 -0.46134,-1.26344 0.47254,-2.58126 2.08406,-2.94234 z"
     id="path31"
     style="stroke-width:76.2036" />
  <path
     fill="#4d4948"
     d="m 724.90312,133.15083 c 1.61188,-0.36094 3.29254,0.37039 3.75379,1.63357 0.46135,1.26391 -0.47253,2.58126 -2.08407,2.94234 -1.61247,0.36161 -3.29313,-0.37039 -3.7537,-1.63356 -0.46134,-1.26344 0.47254,-2.5808 2.08408,-2.94228 z"
     id="path33"
     style="stroke-width:76.2036" />
  <path
     fill="#4d4948"
     d="m 852.41242,104.62748 c 1.61186,-0.36094 3.29251,0.37039 3.75318,1.63403 0.46135,1.26344 -0.47253,2.58079 -2.08407,2.94227 -1.61188,0.36094 -3.29254,-0.37039 -3.75371,-1.63403 -0.46047,-1.26344 0.47255,-2.58078 2.08468,-2.94234 z"
     id="path35"
     style="stroke-width:76.2036" />
  <path
     fill="#4d4948"
     d="m 596.32568,147.2027 c 1.61188,-0.36162 3.29252,0.37039 3.75371,1.63356 0.46047,1.26344 -0.47255,2.58078 -2.08468,2.94233 -1.61188,0.36095 -3.29254,-0.37039 -3.75318,-1.63403 -0.46135,-1.26344 0.47253,-2.58078 2.08407,-2.94186 z"
     id="path37"
     style="stroke-width:76.2036" />
  <path
     fill="#4d4948"
     d="m 607.87143,175.96488 c 1.61186,-0.36161 3.29252,0.37039 3.75369,1.63357 0.46049,1.2639 -0.47253,2.58125 -2.08466,2.94225 -1.61188,0.36163 -3.29254,-0.37038 -3.7532,-1.63355 -0.46133,-1.26345 0.47255,-2.58078 2.08409,-2.94227 z"
     id="path39"
     style="stroke-width:76.2036" />
  <path
     fill="#969594"
     d="m 991.38565,56.582449 c 3.93092,-0.777365 7.9221,1.090848 8.91365,4.17223 0.9915,3.081376 -1.39178,6.209871 -5.32271,6.986799 -3.93092,0.777366 -7.9221,-1.090847 -8.91366,-4.172231 -0.99156,-3.081376 1.39179,-6.209871 5.32272,-6.986798 z"
     id="path41"
     style="stroke-width:76.2036" />
  <path
     fill="#969594"
     d="m 1020.0391,56.452442 c 3.9309,-0.776914 7.9221,1.0913 8.9137,4.172682 0.9915,3.081376 -1.3918,6.209419 -5.3227,6.986799 -3.931,0.776914 -7.9221,-1.090847 -8.9137,-4.172231 -0.9915,-3.081376 1.3918,-6.209872 5.3227,-6.98725 z"
     id="path43"
     style="stroke-width:76.2036" />
  <path
     fill="#969594"
     d="m 1134.6358,55.932345 c 3.931,-0.777365 7.9221,1.090848 8.9137,4.17223 0.9916,3.081376 -1.3918,6.209871 -5.3227,6.986799 -3.9309,0.777366 -7.9221,-1.090847 -8.9137,-4.172231 -0.9915,-3.081376 1.3918,-6.209871 5.3227,-6.986798 z"
     id="path45"
     style="stroke-width:76.2036" />
  <path
     fill="#969594"
     d="m 1105.9824,56.062353 c 3.9309,-0.776914 7.9221,1.090847 8.9136,4.172229 0.9916,3.081377 -1.3918,6.209872 -5.3227,6.987204 -3.9309,0.776913 -7.9221,-1.0913 -8.9142,-4.172682 -0.9907,-3.081378 1.3927,-6.209419 5.3236,-6.986751 z"
     id="path47"
     style="stroke-width:76.2036" />
  <path
     fill="#969594"
     d="m 1077.3375,56.19236 c 3.9309,-0.776913 7.9221,1.0913 8.9136,4.172682 0.9916,3.081376 -1.3926,6.209419 -5.3235,6.986798 -3.931,0.776915 -7.9221,-1.091298 -8.9137,-4.172682 -0.9915,-3.081377 1.3918,-6.209419 5.3236,-6.986798 z"
     id="path49"
     style="stroke-width:76.2036" />
  <path
     fill="#969594"
     d="m 1048.684,56.322435 c 3.9309,-0.776914 7.9221,1.091299 8.9142,4.172682 0.9915,3.081376 -1.3927,6.209418 -5.3236,6.986799 -3.9309,0.776913 -7.9221,-1.0913 -8.9136,-4.172684 -0.9916,-3.081376 1.3917,-6.209419 5.3227,-6.986797 z"
     id="path51"
     style="stroke-width:76.2036" />
  <path
     fill="#4d4948"
     d="m 238.50057,278.57825 1.29694,4.0662 c 0.53969,1.69332 -0.14211,3.29835 -1.50729,3.56565 l -26.13578,5.11994 c -1.3651,0.26716 -2.92965,-0.89744 -3.47001,-2.59078 l -1.33506,-4.18849 c -1.75873,-0.0543 -3.35271,-1.02245 -3.80517,-2.44222 l -17.91975,-56.20277 c -0.54829,-1.71829 0.7712,-3.46871 2.93136,-3.89178 l 41.23519,-8.07807 c 2.16034,-0.42301 4.37446,0.63554 4.92239,2.35343 l 17.92035,56.20277 c 0.54741,1.7183 -0.7712,3.46871 -2.93188,3.89226 l -11.2011,2.19394 z"
     id="path53"
     style="fill:#e6e6e6;stroke-width:76.2036" />
  <path
     fill="#c2c1c1"
     d="m 206.48167,234.59502 c 1.57314,-0.30831 3.16772,0.44191 3.56073,1.67391 0.39334,1.23356 -0.56379,2.48295 -2.13667,2.79147 -1.57263,0.30766 -3.1666,-0.4419 -3.56012,-1.67525 -0.39335,-1.2326 0.56377,-2.48201 2.13606,-2.79007 z m 34.10676,31.76781 c 2.30253,-0.45136 4.63741,0.647 5.21245,2.45125 0.57584,1.80525 -0.82543,3.63493 -3.12786,4.08614 -2.30253,0.45069 -4.63688,-0.64767 -5.21245,-2.45211 -0.57496,-1.80479 0.82543,-3.63455 3.12786,-4.08528 z m -22.23816,5.45652 c 1.57374,-0.30831 3.16772,0.44191 3.56132,1.67479 0.39336,1.23268 -0.56376,2.48249 -2.13725,2.79053 -1.57203,0.30832 -3.16652,-0.4419 -3.55953,-1.67477 -0.39334,-1.23262 0.56379,-2.4825 2.13546,-2.79055 z m -2.96656,-9.30575 c 1.57312,-0.30831 3.16772,0.44192 3.56012,1.67433 0.39333,1.23308 -0.56379,2.48295 -2.13667,2.79099 -1.57202,0.30833 -3.1666,-0.4419 -3.55953,-1.67525 -0.39333,-1.2322 0.56379,-2.48201 2.13608,-2.79007 z m 22.23756,-5.45692 c 2.30251,-0.45136 4.63739,0.647 5.21245,2.45125 0.57582,1.80526 -0.82543,3.63493 -3.12838,4.08615 -2.30192,0.45067 -4.6363,-0.64767 -5.21195,-2.45213 -0.57581,-1.80478 0.82544,-3.63453 3.12778,-4.08527 z m -2.96717,-9.30662 c 2.3025,-0.45068 4.63688,0.64767 5.21245,2.45171 0.57581,1.80479 -0.82543,3.63495 -3.12839,4.08568 -2.30192,0.45136 -4.63629,-0.647 -5.21194,-2.45171 -0.57582,-1.80479 0.82543,-3.63453 3.12779,-4.08568 z m -22.23818,5.4574 c 1.57376,-0.30831 3.16772,0.44191 3.56073,1.6743 0.39336,1.23308 -0.56377,2.48296 -2.13667,2.79101 -1.57202,0.30833 -3.16659,-0.44189 -3.56012,-1.67525 -0.39248,-1.2322 0.56379,-2.48207 2.13606,-2.79006 z m -2.96718,-9.30625 c 1.57376,-0.30832 3.16774,0.4419 3.56073,1.67389 0.39336,1.23356 -0.56376,2.48296 -2.13664,2.7915 -1.57256,0.30831 -3.16652,-0.44192 -3.56014,-1.67525 -0.39334,-1.23221 0.56378,-2.4821 2.13605,-2.79014 z m 22.23818,-5.45741 c 2.30253,-0.45135 4.6368,0.647 5.21245,2.45173 0.57584,1.80477 -0.82543,3.63493 -3.12839,4.08568 -2.30191,0.45134 -4.6368,-0.647 -5.21192,-2.45213 -0.57584,-1.80431 0.82543,-3.63407 3.12786,-4.08528 z m -2.96777,-9.30621 c 2.30312,-0.45136 4.63739,0.647 5.21305,2.45171 0.57497,1.80479 -0.82544,3.63455 -3.12837,4.08568 -2.30194,0.45136 -4.63691,-0.647 -5.21195,-2.45213 -0.57583,-1.80431 0.82544,-3.63405 3.12727,-4.08526 z m -2.96718,-9.30663 c 2.30312,-0.45134 4.63742,0.647 5.21246,2.45171 0.57581,1.8048 -0.82544,3.63455 -3.12786,4.08569 -2.30253,0.45136 -4.6369,-0.647 -5.21248,-2.45212 -0.57495,-1.80431 0.82631,-3.63454 3.12788,-4.08528 z m -22.23756,5.4574 c 1.57315,-0.30831 3.16772,0.44191 3.56073,1.67391 0.39334,1.23308 -0.56379,2.48296 -2.13726,2.79101 -1.57204,0.30833 -3.16651,-0.4419 -3.55952,-1.67479 -0.39336,-1.2326 0.56376,-2.48247 2.13605,-2.79005 z"
     id="path55"
     style="stroke-width:76.2036" />
  <path
     fill="#4d4948"
     d="m 393.28962,178.81465 v 0 c 5.66737,-1.10988 11.46296,1.61994 12.87772,6.05766 l 13.72846,43.05638 c 1.41476,4.43773 -2.06093,8.98414 -7.72766,10.09395 v 0 c -5.66734,1.11033 -11.46185,-1.61543 -12.87774,-6.05721 l -13.72845,-43.05684 c -1.41658,-4.44178 2.06092,-8.98366 7.72767,-10.09394 z"
     id="path57"
     style="stroke-width:76.2036" />
  <path
     fill="#c2c1c1"
     d="m 408.58556,227.60754 c 1.57314,-0.30831 3.16771,0.44192 3.56073,1.67433 0.39333,1.23308 -0.56379,2.48247 -2.13728,2.79099 -1.57203,0.30833 -3.1666,-0.4419 -3.55951,-1.67477 -0.39336,-1.23308 0.56377,-2.48249 2.13606,-2.79055 z m -2.79555,-8.76802 c 1.57315,-0.30833 3.16772,0.44189 3.56073,1.6743 0.39334,1.23308 -0.56379,2.48296 -2.13728,2.79101 -1.57202,0.30831 -3.1666,-0.44191 -3.5595,-1.67526 -0.39336,-1.2322 0.56376,-2.48202 2.13605,-2.79005 z m -2.79555,-8.76805 c 1.57315,-0.30832 3.16772,0.4419 3.56073,1.67431 0.39334,1.23308 -0.56378,2.48296 -2.13727,2.79101 -1.57203,0.30831 -3.1666,-0.44191 -3.55951,-1.67526 -0.39336,-1.2322 0.56377,-2.48202 2.13605,-2.79006 z m -2.79554,-8.76757 c 1.57315,-0.30831 3.16772,0.44191 3.56073,1.6739 0.39334,1.23356 -0.56379,2.48296 -2.13726,2.79149 -1.57204,0.30764 -3.16651,-0.44191 -3.55953,-1.67526 -0.39335,-1.2326 0.56377,-2.48202 2.13606,-2.79005 z m -2.79555,-8.76805 c 1.57315,-0.30831 3.16772,0.44192 3.56012,1.67433 0.39336,1.23308 -0.56376,2.48295 -2.13664,2.79099 -1.57203,0.30833 -3.16662,-0.4419 -3.55953,-1.67525 -0.39336,-1.2322 0.56377,-2.48208 2.13605,-2.79007 z m -2.79605,-8.76802 c 1.57374,-0.30833 3.16772,0.44189 3.56073,1.6743 0.39334,1.23308 -0.56379,2.48296 -2.13667,2.79101 -1.57202,0.30831 -3.16651,-0.44191 -3.55952,-1.67526 -0.39334,-1.2322 0.56378,-2.48201 2.13554,-2.79005 z"
     id="path59"
     style="stroke-width:76.2036" />
  <path
     fill="#4d4948"
     d="m 327.90392,192.80984 v 0 c 5.66674,-1.11036 11.46294,1.62 12.8777,6.05719 l 13.72795,43.05684 c 1.41538,4.43774 -2.06093,8.98414 -7.72766,10.09396 v 0 c -5.66677,1.11034 -11.46126,-1.61542 -12.87774,-6.05718 l -13.72845,-43.05686 c -1.41599,-4.44177 2.0609,-8.98366 7.7282,-10.09395 z"
     id="path61"
     style="stroke-width:76.2036" />
  <path
     fill="#c2c1c1"
     d="m 343.45632,242.40895 c 1.57376,-0.30831 3.16772,0.44191 3.56135,1.67432 0.39333,1.23308 -0.56379,2.48248 -2.13728,2.791 -1.57203,0.30832 -3.1666,-0.4419 -3.55951,-1.67477 -0.39336,-1.23268 0.56377,-2.4825 2.13553,-2.79055 z m -2.79554,-8.76803 c 1.57376,-0.30832 3.16772,0.4419 3.56073,1.67431 0.39336,1.23308 -0.56377,2.48296 -2.13667,2.79101 -1.57253,0.30831 -3.16649,-0.44191 -3.56012,-1.67526 -0.39248,-1.23221 0.56379,-2.48208 2.13606,-2.79006 z m -2.79555,-8.76758 c 1.57376,-0.30831 3.16772,0.44192 3.56073,1.67391 0.39336,1.23308 -0.56376,2.48296 -2.13664,2.79101 -1.57256,0.30833 -3.16652,-0.44191 -3.56014,-1.67525 -0.39334,-1.2322 0.56379,-2.48209 2.13605,-2.78967 z m -2.79554,-8.76804 c 1.57314,-0.30831 3.16774,0.44192 3.56073,1.67391 0.39336,1.23356 -0.56377,2.48296 -2.13665,2.79149 -1.57255,0.30831 -3.16712,-0.44191 -3.56014,-1.67527 -0.39333,-1.23266 0.56379,-2.48207 2.13606,-2.79013 z m -2.79553,-8.76804 c 1.57315,-0.30831 3.16772,0.44191 3.56071,1.67432 0.39336,1.23308 -0.56376,2.48296 -2.13725,2.791 -1.57203,0.30832 -3.16652,-0.4419 -3.55953,-1.67525 -0.39334,-1.2322 0.56379,-2.48202 2.13607,-2.79007 z m -2.79554,-8.76803 c 1.57314,-0.30832 3.16772,0.4419 3.56071,1.67431 0.39336,1.23308 -0.56377,2.48296 -2.13726,2.79101 -1.57202,0.30831 -3.16651,-0.44191 -3.55951,-1.67526 -0.39335,-1.2322 0.56377,-2.48208 2.13606,-2.79006 z"
     id="path63"
     style="stroke-width:76.2036" />
  <path
     fill="#4d4948"
     d="m 270.67873,206.00286 v 0 c 5.82338,-0.35622 10.95958,3.09176 11.41267,7.6518 l 4.40105,44.2469 c 0.45361,4.55996 -3.93867,8.59 -9.76207,8.94607 v 0 c -5.82391,0.35556 -10.95899,-3.08725 -11.41329,-7.65228 l -4.40045,-44.24642 c -0.45446,-4.56496 3.93814,-8.58999 9.76209,-8.94607 z"
     id="path65"
     style="stroke-width:76.2036" />
  <path
     fill="#c2c1c1"
     d="m 271.01096,211.88793 c 1.61654,-0.0984 3.02898,0.84845 3.15498,2.11466 0.12559,1.26755 -1.08192,2.37514 -2.69896,2.47392 -1.61533,0.0985 -3.02898,-0.84893 -3.15447,-2.11554 -0.12559,-1.26661 1.08253,-2.37421 2.69845,-2.47304 z m 0.89525,9.00991 c 1.61712,-0.0985 3.03017,0.84892 3.15618,2.11553 0.12559,1.26661 -1.08246,2.3742 -2.69897,2.47345 -1.61592,0.0984 -3.02897,-0.84846 -3.15499,-2.11602 -0.1256,-1.26612 1.08306,-2.3742 2.69778,-2.47296 z m 0.89634,9.01038 c 1.61713,-0.0984 3.03018,0.84892 3.1562,2.11513 0.1256,1.26755 -1.08306,2.37467 -2.69957,2.47391 -1.61533,0.0984 -3.02847,-0.84892 -3.155,-2.11601 -0.12559,-1.26661 1.08306,-2.3742 2.69845,-2.47297 z m 0.89637,9.0099 c 1.61651,-0.0984 3.03018,0.84892 3.15618,2.11553 0.12559,1.26709 -1.08305,2.37469 -2.70017,2.47345 -1.61533,0.0984 -3.02846,-0.84852 -3.15439,-2.11601 -0.12559,-1.26613 1.08246,-2.37379 2.69838,-2.47297 z m 0.89634,9.01085 c 1.61654,-0.0991 3.02959,0.84846 3.15559,2.11466 0.12559,1.26749 -1.08253,2.37515 -2.69958,2.47392 -1.6153,0.0984 -3.02844,-0.84893 -3.15436,-2.11602 -0.12661,-1.2666 1.08243,-2.37418 2.69845,-2.47248 z m 0.89586,9.00991 c 1.61712,-0.0984 3.03018,0.84853 3.15618,2.11554 0.12559,1.2666 -1.08245,2.3742 -2.69958,2.47296 -1.61592,0.0985 -3.02897,-0.84844 -3.15446,-2.11553 -0.12641,-1.26661 1.08253,-2.3742 2.69786,-2.47297 z"
     id="path67"
     style="stroke-width:76.2036" />
  <g
     id="_146653792"
     transform="matrix(86.072341,0,0,67.466186,21.65164,34.50043)">
    <path
       id="_146653936"
       fill="#838281"
       d="M 1.88971,5.06191 C 2.01949,4.91116 2.118901,4.740118 2.209192,4.555304 2.339758,4.288055 1.93132,4.090531 1.802896,4.358814 1.7140816,4.544339 1.641725,4.728461 1.604136,4.923803 1.5516209,5.196659 1.708428,5.272494 1.889709,5.06191 Z" />
    <path
       id="_146652976"
       fill="#c2c1c1"
       d="M 1.91564,4.92212 C 2.0143115,4.807434 2.095579,4.68089 2.168547,4.545516 L 1.83581,4.3846 C 1.7749889,4.525842 1.726234,4.668004 1.697623,4.816687 1.6451012,5.089543 1.7344796,5.132684 1.91564,4.92212 Z" />
    <ellipse
       id="_146652232"
       fill="#383431"
       transform="matrix(0.900248,0.435376,-0.435376,0.900248,1.95556,4.56144)"
       rx="0.058752999"
       ry="0.029376499"
       cx="0"
       cy="0" />
    <path
       id="_146653120"
       fill="none"
       d="M 1.85418,4.41451 C 1.816041,4.511369 1.818895,4.612813 1.899779,4.651933 1.965596,4.683767 2.055981,4.627398 2.134677,4.550166" />
    <path
       id="_146653720"
       fill="#72706f"
       fill-rule="nonzero"
       d="M 1.86518,4.41886 C 1.836999,4.490492 1.820266,4.60033 1.904931,4.641275 l 5.37e-5,8.06e-5 c 0.075909,0.036662 0.175138,-0.054167 0.221422,-0.099605 0.01261,-0.00622 0.018123,-6.178e-4 0.016531,0.01684 -0.055295,0.054281 -0.160977,0.146117 -0.248226,0.104003 l -2.01e-5,4.03e-5 -7.39e-5,-3.36e-5 c -0.097416,-0.04711 -0.084477,-0.168329 -0.051642,-0.251933 l 1.947e-4,-4.969e-4 c 0.015967,-0.018969 0.024817,-0.010005 0.02201,0.00869 z" />
  </g>
  <path
     fill="#4d4948"
     d="m 245.79091,347.92539 c 8.13168,-1.5928 16.37492,2.28455 18.40752,8.65841 2.03207,6.37434 -2.91459,12.83557 -11.04627,14.42839 -8.13229,1.5928 -16.37545,-2.28453 -18.40752,-8.65841 -2.03209,-6.37386 2.91458,-12.83517 11.04627,-14.42839 z"
     id="path75"
     style="stroke-width:76.2036" />
  <path
     fill="#c2c1c1"
     d="m 247.26275,352.54279 c 4.8796,-0.95587 9.82507,1.37037 11.04453,5.1951 1.21949,3.82431 -1.7483,7.7012 -6.62783,8.65657 -4.879,0.95587 -9.82507,-1.37036 -11.04392,-5.19468 -1.21949,-3.82473 1.7482,-7.70115 6.62722,-8.65699 z"
     id="path77"
     style="stroke-width:76.2036" />
  <path
     fill="#4d4948"
     d="m 268.62072,314.83661 c 8.1317,-1.5928 16.37492,2.28453 18.40693,8.65881 2.03259,6.37387 -2.91398,12.83517 -11.04627,14.42791 -8.13169,1.59282 -16.37491,-2.28454 -18.40691,-8.6584 -2.0326,-6.37387 2.91458,-12.83517 11.04625,-14.42832 z"
     id="path79"
     style="stroke-width:76.2036" />
  <path
     fill="#c2c1c1"
     d="m 270.09258,319.45399 c 4.879,-0.95586 9.82507,1.37037 11.04454,5.1951 1.21946,3.82432 -1.74882,7.7012 -6.62784,8.65707 -4.87901,0.95545 -9.82511,-1.3708 -11.04457,-5.19511 -1.21947,-3.82478 1.74889,-7.70119 6.62787,-8.65706 z"
     id="path81"
     style="stroke-width:76.2036" />
  <path
     fill="#4d4948"
     d="m 278.19628,276.16768 c 8.13168,-1.5928 16.37492,2.28455 18.40691,8.65842 2.0326,6.37386 -2.91398,12.83517 -11.04627,14.42838 -8.13168,1.59281 -16.37492,-2.28455 -18.40691,-8.65841 -2.0326,-6.37434 2.9146,-12.83517 11.04627,-14.42839 z"
     id="path83"
     style="stroke-width:76.2036" />
  <path
     fill="#c2c1c1"
     d="m 279.66812,280.78575 c 4.8796,-0.95587 9.82507,1.37038 11.04455,5.19469 1.21947,3.8248 -1.74883,7.7012 -6.62783,8.65707 -4.87902,0.95585 -9.82507,-1.37038 -11.04456,-5.19511 -1.21946,-3.82439 1.74882,-7.70078 6.62784,-8.65665 z"
     id="path85"
     style="stroke-width:76.2036" />
  <path
     fill="#aaa9a9"
     fill-rule="nonzero"
     d="m 227.65546,279.80343 c 4.81834,2.04856 10.05505,3.96567 14.68266,6.24886 10.03422,6.59044 48.90906,20.2174 57.94872,23.05057 18.53291,5.80897 36.60578,10.13065 54.47414,13.79102 4.15602,-0.65374 11.04395,-0.0714 18.44161,1.76587 4.54436,1.12797 11.38374,3.25491 14.49829,4.74847 4.55072,2.18531 4.33399,3.80847 3.63869,5.52812 -0.6946,1.71782 -1.7136,3.14797 -7.03882,2.8748 -3.64396,-0.18756 -10.79657,-1.53661 -15.33861,-2.66781 -7.24161,-1.79799 -13.19961,-4.36157 -16.18357,-6.73084 -18.08793,-3.70923 -36.39664,-8.09075 -55.19768,-13.98398 -19.12991,-5.99512 -38.74883,-13.54458 -59.12713,-23.5194 -4.75877,-2.02357 -9.51702,-4.04675 -14.2752,-6.06986 -2.63019,-0.93636 0.85127,-5.92043 3.4769,-5.03567 z"
     id="path87"
     style="stroke-width:76.2036" />
</svg>
