<?xml version="1.0" encoding="UTF-8" standalone="no"?>
<svg
   width="1200pt"
   height="1200pt"
   version="1.1"
   viewBox="0 0 1200 1200"
   id="svg4"
   sodipodi:docname="maneline-logo.svg"
   inkscape:version="1.2.2 (b0a8486541, 2022-12-01)"
   xmlns:inkscape="http://www.inkscape.org/namespaces/inkscape"
   xmlns:sodipodi="http://sodipodi.sourceforge.net/DTD/sodipodi-0.dtd"
   xmlns="http://www.w3.org/2000/svg"
   xmlns:svg="http://www.w3.org/2000/svg">
  <defs
     id="defs8" />
  <sodipodi:namedview
     id="namedview6"
     pagecolor="#ffffff"
     bordercolor="#000000"
     borderopacity="0.25"
     inkscape:showpageshadow="2"
     inkscape:pageopacity="0.0"
     inkscape:pagecheckerboard="0"
     inkscape:deskcolor="#d1d1d1"
     inkscape:document-units="pt"
     showgrid="false"
     inkscape:zoom="0.464375"
     inkscape:cx="801.07672"
     inkscape:cy="802.15343"
     inkscape:window-width="1351"
     inkscape:window-height="928"
     inkscape:window-x="2024"
     inkscape:window-y="104"
     inkscape:window-maximized="0"
     inkscape:current-layer="svg4" />
  <path
     d="m820.45 258.73c2.0156 2.0742-2.0273 4.043-2.0273 4.043s-14.051 4.043-18.098 10.055c-4.043 4.0547-10.008 18.047-10.008 18.047 8.0391-1.9688 18.098-4.043 28.105-8.1016 2.0273 0 4.043 2.0898 6.0703 4.0547 1.9688 0-24.168 10.055-30.133 13.992-4.043 4.1641-24.109 20.23-30.121 20.23-6.0117 0-20.125 1.9688-20.125 1.9688 2.0273 4.043 4.043 7.9805 7.9805 13.992 0 0-13.992 8.1016-13.992 10.066-1.9688 2.0742-12.035 14.113-12.035 14.113s36.145 3.9258 48.18-16.078c-12.035 20.004-40.141 40.129-98.41 40.129-60.254 0-108.41-24.047-140.55-36.086-34.176-13.992-78.336-30.18-114.49-30.18-34.117 0-74.293 10.055-100.38 34.223-46.199-18.035-110.48-8.0898-140.62 20.016-28.105 28.105-56.207 62.328-60.254 86.281-6.0117 26.242-20.062 88.453-40.141 116.68-28.152 46.02-60.254 58.164-70.309 78.168-10.055 20.125-10.055 62.328-8.0898 62.328 4.043 1.9688 18.156 0 26.184-4.0547 16.078-6.0117 60.203-52.152 76.273-74.242 16.066-22.199 70.367-118.63 78.348-152.64 8.0391-34.117 16.066-68.34 40.188-86.387 26.137-18.047 58.176-10.055 58.176-7.9805 0 0-30.07 24.059-32.039 90.324-2.0742 66.254 38.113 58.273 18.035 100.38-20.113 36.18-80.305 12.023-100.37 34.105-16.078 18.156 0 82.332 0 94.355 0 12.145-6.1211 68.34-10.055 82.453-2.0742 12.023 0 20.004-2.0742 28.105-1.9688 6.1211 12.145 7.9805 12.145 7.9805s-12.145 15.961-18.156 12.133c-6.0117-2.0742-10.008-2.0742-14.004 0-4.043 0-12.023 3.8281-20.113 0l-32.16 68.242c4.0547 2.0742 10.066 3.9375 16.078 2.0742 8.0898-2.0742 48.227-20.23 52.262-24.266 6.0117-1.9688 40.141-21.984 46.152-34.008 4.043-12.035 12.023-50.293 12.023-62.219 2.0273-12.145 4.043-50.305 4.043-60.254 0-10.055-2.0156-28.105 0-36.191 4.0547-6.0117 10.066-14.113 18.109-18.156 9.9961-1.9688 22.031-1.9688 24.047-1.9688 4.0547 0 38.219 4.043 44.184 4.043 8.0391 0 40.188-6.0117 48.227-10.164 10.055-1.8594 16.02 0 18.098 4.1523 3.9961 3.9375-4.043 9.9492-4.043 12.035-1.9688 1.957-18.047 22.078-22.094 30.059-4.043 10.066-18.047 28.105-13.992 36.203 3.9844 7.9805 3.9844 10.055 16.02 16.188 12.086 3.8164 58.223 28.105 84.348 52.164 28.105 25.906 54.238 58.055 58.297 74.242 5.9531 18.156 16.008 20.016 22.031 20.016 6.0703 2.0742 18.098 4.043 18.098 12.133 0 7.9922-2.0742 18.047-2.0742 18.047l74.352 28.117s0-26.148-1.9688-36.098c-2.0273-12.035-14.113-24.059-24.18-36.203-9.9961-14.102-114.36-116.45-124.49-124.54-9.9961-6.0234-18.098-14.004-20.062-30.07-2.0742-16.188 18.047-28.105 30.191-42.109 7.9805-10.055 30.07-56.305 34.055-62.426 3.9961-5.9023 18.098-21.984 26.074-21.984 10.066 0 32.16 14.113 60.301 24.059 12.035 4.043 98.352 26.027 110.5 30.18 12.023 1.9688 38.051 0 46.152 7.9805 7.9805 6.0117 0 22.199-2.0273 32.148-2.0273 12.035-24.059 56.207-24.059 56.207s3.9961 15.973 3.9961 28.223c0 13.992-6.0117 64.188-12.035 80.148-4.043 18.156-32.148 64.402-38.219 72.395-3.9844 6.0117-9.9961 10.066-9.9961 20.125 0 9.9492 18.035 12.145 24.047 20.016 8.1016 6.1211 2.0273 18.035 0 30.18l80.363 34.117c0-6.0117 4.0547-16.078 0-20.125-2.0742-5.9023-12.023-18.035-18.035-26.137-4.043-6.0117-18.098-28.105-22.094-32.148-4.043-5.9023-4.043-17.93 0-28.117 1.9688-9.9375 28.105-78.191 30.07-86.27 4.043-9.9492 42.215-90.434 46.199-100.38 4.043-12.023 36.145-70.297 40.188-80.363 3.9961-12.133 30.133-22.094 38.172-22.094 9.9961 0 60.254 18.047 68.23 22.094 6.0117 1.9688 52.273 22.199 60.254 26.137 10.066 3.9375 4.043 12.035-1.9688 14.113-6.0117 3.9375-80.375 54.133-86.387 56.207-6.0117 1.9688-12.023 7.8711-16.078 7.8711-6.0117 0-14.051 6.2383-14.051 8.207 0 4.043-1.9688 12.023-12.023 12.023-8.0391 0-24.109-12.023-34.117-24.059-14.113 7.9805-24.121 14.113-30.18 26.027-10.008 9.9492-14.051 18.156-20.074 32.148 4.0547 4.043 12.086 5.9023 18.047 5.9023h64.285c6.0234 0 14.051-1.8594 20.125-3.8281 6.0117-4.043 164.64-108.47 164.64-108.47s26.184-20.125 26.184-38.16c0-14.113-12.133-18.156-16.066-24.168-6.0703-3.9375-42.215-28.105-48.227-32.039-8.1016-6.0117-36.203-22.199-44.184-26.242-6.0703-3.9375-28.211-11.914-28.211-11.914 6.1211-18.156 10.117-32.16 12.086-36.203 2.0742-4.043 2.0742-40.246 3.9961-46.246 0-5.9023 10.117-32.039 14.102-36.086 4.043-4.043 14.113-36.191 16.078-42.215 2.0742-3.9375 18.035-50.184 26.137-50.184 7.9805-1.9688 16.066 6.0117 24.059 6.0117 8.0898 1.9688 38.16-1.9688 54.238 0 14.102 1.9688 32.148 20.125 36.191 22.094 6.0117 2.0742 20.016 7.9805 24.059 7.9805 2.0273 0 22.094-14.004 22.094-17.941 0-4.1523-14.113-12.133-16.078-12.133-1.9688-1.9688-16.02-10.066-16.02-10.066 0 2.0898 5.9648-3.9375 16.02-3.9375 8.0391 0 16.078 7.9922 18.047 10.066 4.043 1.9688 14.102 7.9805 16.066 3.9375 2-2.0117 10.039-12.078 10.039-18.078 0-8.0898-8.0391-18.035-12.035-22.094-3.9844-4.043-50.195-48.109-54.238-50.184-6.0117-1.9688-30.07-24.18-30.07-30.07-2.0742-4.1641-14.102-14.113-16.066-16.188-2.0898-1.9688-62.27-44.062-70.309-50.305-8.0391-5.9023-16.078-15.961-16.078-26.016 0-9.9492-4.043-36.086-4.043-36.086s-13.992-1.9688-20.062 3.9375c-5.9648 4.1523-20.062 36.301-28.105 36.301-22.152-4.1523-50.258 1.9688-50.258 5.9023 2.0742 6.0117 22.141 1.9688 22.141 1.9688 0 2.0742-8.0391 12.023-14.113 12.023-3.9844 0-16.02 4.043-18.035 6.0117-3.9961 0-12.035 6.2383-12.035 6.2383 5.9648 0 12.035 0 20.074 1.8477 0 0-12.035 8.1016-18.109 8.1016-5.9531 0-26.074 6.0117-32.09 7.9805-4.043 3.9375-20.125 16.078-20.125 16.078h-18.047l1.9688 4.043h10.066v1.9805z"
     fill="#634531"
     fill-rule="evenodd"
     id="path2" />
</svg>
